<?xml version="1.0" standalone="no"?>
<!DOCTYPE svg PUBLIC "-//W3C//DTD SVG 20010904//EN"
 "http://www.w3.org/TR/2001/REC-SVG-20010904/DTD/svg10.dtd">
<svg version="1.0" xmlns="http://www.w3.org/2000/svg"
 width="547.000000pt" height="456.000000pt" viewBox="0 0 547.000000 456.000000"
 preserveAspectRatio="xMidYMid meet">

<g transform="translate(0.000000,456.000000) scale(0.100000,-0.100000)"
fill="#000000" stroke="none">
<path d="M2645 4333 c-298 -24 -537 -88 -790 -212 -613 -301 -1039 -896 -1131
-1581 -16 -124 -18 -370 -4 -490 32 -265 121 -550 236 -754 24 -43 44 -83 44
-88 0 -6 -25 -76 -56 -156 -31 -81 -76 -210 -99 -287 -48 -157 -132 -522 -122
-531 9 -9 355 69 521 117 77 22 209 67 293 100 l154 61 142 -71 c198 -98 324
-142 527 -185 171 -35 442 -46 638 -26 444 47 865 243 1189 554 340 326 541
709 619 1181 25 150 26 486 1 630 -22 126 -49 234 -89 354 l-31 94 27 121 c44
207 59 351 53 541 -6 191 -18 251 -75 359 -40 77 -102 131 -190 165 -168 66
-485 68 -792 4 -187 -39 -175 -39 -311 5 -238 78 -526 114 -754 95z m375 -184
c152 -18 505 -120 483 -139 -4 -4 -34 -17 -65 -29 -131 -48 -278 -138 -337
-208 -129 -151 -97 -130 -518 -335 l-387 -188 -283 -562 c-156 -309 -286 -571
-289 -582 -7 -21 -20 -27 369 183 115 62 210 111 213 108 3 -2 -14 -43 -38
-91 -50 -100 -51 -89 40 -273 64 -130 123 -202 216 -262 63 -41 256 -131 281
-131 7 0 52 19 99 41 48 23 88 40 90 38 2 -2 -17 -42 -43 -89 -113 -203 -271
-498 -271 -504 0 -3 261 125 580 284 l581 291 96 197 c127 262 175 364 171
367 -2 1 -66 -33 -142 -76 -137 -77 -309 -159 -475 -226 -84 -34 -121 -39 -61
-8 68 35 291 172 420 258 294 195 544 405 618 518 23 36 58 103 77 150 20 46
42 97 49 114 l13 29 31 -80 c86 -224 128 -482 119 -734 -9 -254 -61 -482 -159
-698 -242 -537 -698 -923 -1261 -1067 -162 -41 -282 -55 -474 -55 -302 1 -555
58 -818 187 -92 45 -222 119 -229 131 -3 5 16 19 42 31 205 99 491 320 649
500 66 75 213 283 213 301 0 3 -35 20 -77 38 -82 33 -191 101 -267 165 -76 63
-190 247 -230 370 -5 16 -9 16 -54 -7 -80 -40 -240 -166 -342 -267 -153 -152
-295 -342 -399 -531 -24 -43 -46 -78 -51 -78 -17 0 -133 215 -185 340 -39 98
-93 288 -112 403 -24 144 -24 474 1 612 55 309 181 599 365 840 62 82 221 245
306 315 304 249 706 404 1095 423 89 5 247 -2 350 -14z m1320 -239 l25 -8 -28
-1 c-15 -1 -71 -10 -125 -22 -439 -95 -984 -464 -1480 -1000 -75 -81 -138
-146 -140 -144 -7 7 126 253 205 379 188 303 419 557 613 674 93 56 299 105
506 121 141 11 392 11 424 1z"/>
</g>
</svg>
